<?xml version="1.0" encoding="utf-8"?>
<!-- Generator: Adobe Illustrator 17.0.0, SVG Export Plug-In . SVG Version: 6.00 Build 0)  -->
<!DOCTYPE svg PUBLIC "-//W3C//DTD SVG 1.1//EN" "http://www.w3.org/Graphics/SVG/1.1/DTD/svg11.dtd">
<svg version="1.1" xmlns="http://www.w3.org/2000/svg" xmlns:xlink="http://www.w3.org/1999/xlink" x="0px" y="0px" width="200px"
	 height="168px" viewBox="0 0 200 168" enable-background="new 0 0 200 168" xml:space="preserve">
<g id="Layer_1">
</g>
<g id="Layer_2">
	<path fill="#FFFFFF" d="M16.329,125.555c-0.074-0.281-0.192-0.552-0.354-0.804c-0.015-0.122-0.02-0.245-0.027-0.367
		c-0.027-0.467-0.062-1.079-0.44-1.631c0-0.053,0.001-0.109,0.002-0.155c0.009-0.417,0.026-1.146-0.524-1.669
		c-0.029-0.068-0.198-0.479-0.25-0.593c-0.01-0.118-0.004-0.241-0.003-0.364c0.006-0.466,0.015-1.129-0.392-1.703
		c-0.048-0.5-0.191-0.93-0.432-1.301c-0.063-0.243-0.108-0.509-0.156-0.789c-0.105-0.619-0.223-1.313-0.579-1.971
		c-0.115-0.641-0.3-1.249-0.479-1.838c-0.192-0.631-0.374-1.228-0.466-1.839l-0.042-0.281c0.589-0.196,1.034-0.583,1.385-0.889
		c0.208-0.182,0.405-0.353,0.58-0.445c0.992-0.578,1.875-1.213,2.729-1.828c0.965-0.695,1.877-1.351,2.863-1.885l0.228-0.124
		l0.14-0.219c0.118-0.185,0.409-0.326,0.747-0.488c0.453-0.218,1.044-0.503,1.454-1.072c0.805-0.342,1.475-0.873,2.076-1.348
		c0.597-0.472,1.161-0.918,1.764-1.125l0.154-0.053l0.129-0.099c0.506-0.387,1.041-0.734,1.608-1.101
		c0.863-0.56,1.753-1.137,2.557-1.878c0.61-0.221,1.385-0.548,1.875-1.253c0.014-0.003,0.027-0.006,0.041-0.01
		c0.149-0.035,0.298-0.071,0.403-0.089l0.694-0.115l0.111-0.613l0.17-0.015l0.255-0.162c1.594-1.133,3.043-2.148,4.622-3.096
		l0.168-0.101l0.117-0.157c0.227-0.303,0.434-0.58,0.552-0.58h0.583L40.556,91c0.082-0.146,0.307-0.254,0.667-0.415
		c0.475-0.213,1.096-0.491,1.501-1.12c0.82-0.361,1.5-0.876,2.161-1.377c0.593-0.449,1.153-0.874,1.77-1.15l0.127-0.057l0.107-0.09
		c0.606-0.508,1.28-0.951,1.994-1.419c0.64-0.42,1.299-0.854,1.928-1.351c0.343-0.137,0.605-0.344,0.806-0.502
		c0.095-0.076,0.239-0.189,0.292-0.206l0.766,0.045l0.227-0.726c0.004-0.012,0.012-0.03,0.021-0.05
		c0.967-0.506,1.839-1.144,2.685-1.763c0.29-0.212,0.579-0.424,0.871-0.628c0.877-0.493,1.624-1.073,2.346-1.633
		c0.185-0.144,0.371-0.288,0.559-0.431c0.584-0.206,1.004-0.583,1.349-0.892c0.271-0.243,0.505-0.453,0.723-0.5l0.317-0.069
		l0.216-0.241c0.188-0.21,0.485-0.369,0.829-0.554c0.43-0.23,0.939-0.504,1.352-0.967c0.721-0.126,1.163-0.608,1.469-0.943
		c0.137-0.149,0.278-0.304,0.372-0.346c0.601-0.213,1.103-0.635,1.545-1.006c0.376-0.315,0.701-0.588,1.065-0.714l0.146-0.05
		l0.124-0.092c1.216-0.904,2.521-1.733,3.782-2.536l0.64-0.408l0.068-0.063c0.561-0.526,1.225-1.088,1.901-1.272l0.332-0.09
		l0.206-0.275c0.067-0.09,0.188-0.262,0.303-0.44c0.182-0.047,0.376-0.092,0.488-0.11l0.491-0.083l0.23-0.441
		c0.155-0.297,0.482-0.473,1.003-0.736c0.344-0.173,0.734-0.369,1.093-0.653c0.451-0.384,0.945-0.693,1.469-1.021
		c0.708-0.444,1.439-0.902,2.079-1.538c1.694-1.011,3.318-2.146,4.888-3.246c1.294-0.905,2.631-1.841,3.986-2.69
		c0.355-0.196,0.674-0.473,0.935-0.813c0.587-0.187,1.02-0.562,1.384-0.875c0.143-0.123,0.283-0.249,0.435-0.352
		c0.897-0.393,1.643-0.951,2.365-1.492c0.604-0.453,1.175-0.881,1.797-1.183l0.071-0.035l0.064-0.045
		c0.499-0.349,0.994-0.705,1.491-1.062c1.495-1.074,3.041-2.184,4.656-3.081l0.076-0.042l0.068-0.055
		c1.209-0.981,2.551-1.884,3.85-2.758c0.98-0.66,1.994-1.343,2.964-2.066l0.083-0.054c0.542-0.362,1.102-0.736,1.655-0.963
		l0.186-0.077l0.555-0.556c1.786-1.161,3.567-2.389,5.291-3.577c1.953-1.346,3.972-2.738,5.984-4.022l0.125-0.08l0.096-0.112
		c0.152-0.177,0.381-0.353,0.664-0.51l0.065-0.036l0.059-0.045c0.336-0.259,0.717-0.493,1.121-0.741
		c0.699-0.43,1.419-0.872,2.027-1.509c0.453-0.074,1.024-0.257,1.393-0.807c1.136-0.716,2.24-1.504,3.31-2.268
		c1.596-1.139,3.246-2.316,4.965-3.222l0.199-0.105l0.135-0.181c0.079-0.105,0.216-0.292,0.322-0.42
		c1.958-1.114,3.804-2.447,5.589-3.738l0.958-0.691c1.364-0.768,2.623-1.683,3.841-2.567c1-0.727,1.946-1.414,2.949-2.03
		c1.988-1.263,3.925-2.617,5.798-3.926c1.853-1.295,3.77-2.635,5.706-3.865c1.036-0.769,2.071-1.466,3.073-2.14
		c1.302-0.876,2.644-1.779,3.914-2.786c0.212,1.024,0.492,2.025,0.765,3.001c0.228,0.813,0.455,1.625,0.64,2.443l0.016,0.07
		l0.026,0.067c0.119,0.308,0.191,0.66,0.267,1.032c0.032,0.156,0.117,0.539,0.117,0.539l0.028,0.072
		c0.126,0.314,0.238,0.701,0.314,1.087c0.424,1.454,0.784,2.874,1.132,4.247c0.353,1.392,0.718,2.831,1.131,4.235l0.126,0.541
		c0.312,1.331,0.634,2.707,1.115,4.04c0.503,1.965,1.058,4.012,1.612,6.058c0.708,2.615,1.441,5.319,2.108,7.986l0.133,0.533
		l0.177,0.059c0.007,0.662,0.203,1.257,0.38,1.795c0.118,0.356,0.229,0.693,0.265,0.994l0.01,0.088l0.026,0.085
		c0.099,0.321,0.163,0.642,0.229,0.963c0.038,0.186,0.077,0.372,0.12,0.559c0.621,1.981,1.13,3.962,1.623,5.878
		c0.273,1.061,0.545,2.119,0.832,3.167c0.366,1.447,0.771,2.905,1.176,4.366c0.566,2.035,1.15,4.14,1.625,6.228l0.021,0.094
		l0.039,0.088c0.363,0.821,0.57,1.758,0.791,2.75c0.12,0.541,0.239,1.078,0.383,1.596l0.03,0.109l0.054,0.1
		c0.252,0.466,0.36,1.055,0.474,1.678c0.081,0.442,0.165,0.9,0.306,1.36l0.034,0.11l0.058,0.099c0.097,0.167,0.144,0.418,0.198,0.71
		c0.042,0.228,0.086,0.459,0.153,0.692l0.036,0.104c0.189,0.462,0.309,0.988,0.435,1.545c0.093,0.411,0.188,0.822,0.309,1.22
		c0.198,0.574,0.328,1.13,0.467,1.72c0.118,0.504,0.237,1.007,0.389,1.502l0.32,1.131c0.458,1.615,0.932,3.284,1.289,4.939
		l0.014,0.066l0.023,0.064c0.271,0.744,0.461,1.516,0.664,2.333c0.145,0.583,0.289,1.165,0.46,1.731
		c0.359,1.077,0.624,2.199,0.881,3.283c0.121,0.513,0.242,1.023,0.371,1.525l0.023,0.088l0.038,0.083
		c0.119,0.257,0.176,0.574,0.236,0.909c0.032,0.178,0.064,0.354,0.104,0.526l0.015,0.063l0.022,0.061
		c0.4,1.078,0.688,2.266,0.965,3.415l0.225,0.921l0.074,0.231c0.295,0.883,0.574,1.717,0.678,2.58l0.036,0.301l0.197,0.23
		c0.066,0.078,0.098,0.219,0.111,0.39c-0.062-0.002-0.667-0.003-0.667-0.003l-0.265,0.354c-1.23,0.064-2.488,0.1-3.746,0.136
		l-0.64,0.018l-0.133,0.312c0,0-0.235-0.01-0.328-0.01c-0.113,0-0.267,0.005-0.437,0.039c-0.1-0.004-0.199-0.006-0.297-0.006
		c-0.806,0-1.553,0.14-2.275,0.275c-0.661,0.124-1.286,0.241-1.907,0.241c-0.107,0-0.214-0.003-0.323-0.011l-0.373-0.026
		l-0.299,0.224c-0.142,0.106-0.347,0.146-0.755,0.146l-0.524-0.006c-0.351,0-0.768,0.019-1.195,0.154
		c-0.532,0.169-1.142,0.252-1.865,0.252c-0.173,0-0.346-0.005-0.517-0.013l-1.17-0.053l0.043,0.389
		c-1.072,0.021-2.116,0.167-3.128,0.308c-1.082,0.151-2.104,0.294-3.143,0.294l-0.561-0.007l-0.291,0.258
		c-0.093,0.083-0.283,0.12-0.617,0.12c-0.136,0-0.273-0.005-0.411-0.011c-0.163-0.006-0.325-0.013-0.485-0.013
		c-0.334,0-0.606,0.027-0.856,0.083l-0.256,0.058l-0.195,0.177c-0.059,0.053-0.347,0.055-0.537,0.055
		c-0.155,0.001-0.308,0.002-0.456,0.014c-0.007,0-0.015,0-0.022,0c-0.517,0-1.071,0.1-1.607,0.196
		c-0.479,0.086-0.931,0.167-1.351,0.167h-0.62l-0.158,0.317c-0.02,0-0.04,0-0.059,0c-1.592,0-3.17,0.183-4.697,0.358
		c-0.854,0.099-1.711,0.198-2.572,0.265l-0.212,0.017l-0.187,0.102c-0.403,0.219-0.897,0.262-1.615,0.262l-0.566-0.002
		c-0.726,0-1.562,0.032-2.355,0.4c-0.11,0.016-0.241,0.016-0.29,0.016c0,0-0.533-0.013-0.651-0.013
		c-0.471,0-1.055,0.051-1.583,0.406c-0.163,0.018-0.351,0.026-0.574,0.026c-0.201,0-0.404-0.006-0.607-0.013
		c-0.224-0.006-0.447-0.013-0.667-0.013c-0.642,0-1.382,0.049-2.082,0.387c-0.814,0.093-1.62,0.093-2.469,0.093h-1v0.361
		c-0.88,0.033-1.739,0.071-2.576,0.13l-0.252,0.018l-0.213,0.136c-0.189,0.121-0.525,0.155-0.88,0.192
		c-0.615,0.064-1.436,0.15-2.087,0.775l-0.515,0.1l0.318-0.464c-0.039-0.02-0.143-0.036-0.248-0.049
		c-0.192-0.025-0.386-0.046-0.567-0.046c-0.538,0-0.902,0.185-1.145,0.404c-0.12,0.006-0.252,0.01-0.401,0.01
		c-0.182,0-0.951-0.018-1.151-0.018c-0.729,0-1.568,0.058-2.333,0.471c-0.05,0.008-0.122,0.014-0.222,0.014
		c-0.172,0-0.35-0.016-0.527-0.03c-0.231-0.019-0.46-0.036-0.68-0.036c-0.243,0-0.883,0-1.444,0.404
		c-0.068,0-0.137,0.001-0.206,0.001c-0.665,0.002-1.442,0.004-2.19,0.276l-0.742-1.11l-0.743,1.314c-0.013,0-0.028,0-0.045,0
		c-0.123,0-0.252-0.012-0.382-0.023c-0.19-0.017-0.38-0.032-0.564-0.032c-0.522,0-0.956,0.128-1.296,0.381
		c-0.877,0.021-1.724,0.15-2.544,0.276c-0.869,0.133-1.688,0.259-2.519,0.26c-0.104,0-0.57-0.017-0.57-0.017l-0.231,0.116
		c-0.1,0.05-0.182,0.11-0.251,0.168c-0.468,0.033-0.928,0.047-1.391,0.061c-0.293,0.009-1.215,0.046-1.215,0.046l-0.255,0.207
		c-0.146,0.119-0.382,0.169-0.789,0.169c-0.167,0-0.337-0.008-0.508-0.015c-0.2-0.009-0.4-0.018-0.597-0.018
		c-0.5,0-1.135,0.048-1.731,0.393c-0.083,0.011-0.184,0.017-0.306,0.017c-0.135,0-0.273-0.006-0.412-0.012
		c-0.167-0.007-0.334-0.014-0.5-0.014c-0.492,0-1.111,0.053-1.679,0.429c-0.156,0.027-0.344,0.04-0.576,0.04
		c-0.176,0-0.354-0.006-0.531-0.013c-0.2-0.007-0.4-0.014-0.597-0.014c-0.539,0-1.219,0.048-1.854,0.389
		c-0.796,0.066-1.588,0.098-2.414,0.098h-1.152l0.048,0.339c-0.244,0.069-0.478,0.174-0.697,0.313
		c-0.099,0.008-0.201,0.01-0.305,0.01c-0.2,0-0.407-0.01-0.614-0.02c-0.241-0.011-0.483-0.022-0.721-0.022
		c-0.587,0-1.32,0.058-1.975,0.469c-0.146,0.01-0.295,0.013-0.445,0.013c-0.198,0-0.397-0.005-0.598-0.011
		c-0.219-0.006-0.439-0.011-0.658-0.011c-0.715,0-1.544,0.054-2.323,0.443c-0.099,0.018-0.222,0.027-0.374,0.027
		c-0.178,0-0.361-0.011-0.544-0.021c-0.222-0.013-0.443-0.024-0.66-0.024c-0.465,0-1.11,0.049-1.688,0.425l-3.017,0.123
		l-0.252,0.195c-0.167,0.128-0.443,0.184-0.924,0.184c-0.152,0-0.307-0.005-0.461-0.01c-0.174-0.005-0.348-0.01-0.519-0.01
		c-0.263,0-0.657,0.01-1.051,0.102l-0.293,0.067c0,0-0.207,0.218-0.207,0.218c-0.002,0-0.077,0.038-0.34,0.038
		c-0.171,0-0.35-0.014-0.531-0.026c-0.232-0.017-0.467-0.033-0.695-0.033c-0.418,0-1.013,0.045-1.558,0.396
		c-0.081,0.012-0.181,0.018-0.302,0.018c-0.138,0-0.279-0.007-0.419-0.014c-0.172-0.008-0.344-0.016-0.513-0.016
		c-0.419,0-1.006,0.043-1.551,0.374c-0.994,0.089-2.093,0.133-3.351,0.133h-0.414l-0.326,0.326h-2.018l-0.045,0.365
		c-0.067,0.003-0.134,0.007-0.201,0.01c-0.716,0.036-1.443,0.073-2.171,0.073h-1.518l0.152,0.354
		c-0.083,0.004-0.397,0.026-0.397,0.026l-0.136,0.051c-0.815,0.306-1.766,0.319-2.773,0.333c-0.736,0.01-1.497,0.021-2.256,0.147
		l-0.366,0.061l-0.167,0.2c-1.016,0.062-2.055,0.092-3.093,0.092h-1.281l0.08,0.32c-0.042-0.001-0.083-0.002-0.124-0.002
		c-0.588,0-0.996,0.186-1.277,0.421c-0.022,0-0.045,0-0.068,0c-0.121,0-0.243-0.005-0.365-0.01
		c-0.148-0.005-0.297-0.011-0.444-0.011c-0.43,0-0.971,0.041-1.497,0.329c-0.584,0.054-1.182,0.079-1.811,0.105
		c-0.476,0.02-0.954,0.04-1.433,0.073l-0.931,0.064v0.237c-0.403,0.014-0.804,0.034-1.207,0.054c-0.361,0.018-0.723,0.036-1.09,0.05
		l-0.963,0.036v0.363c-1.435,0.169-3.166,0.343-4.95,0.417l-0.39,0.016l-0.269,0.27c-0.5,0.059-1.024,0.067-1.574,0.076
		c-0.453,0.007-0.904,0.014-1.348,0.048l-1.326,0.102l0.085,0.228c-0.173-0.008-0.347-0.014-0.518-0.014
		c-0.51,0-1.16,0.045-1.788,0.368c-0.537,0.065-1.102,0.084-1.697,0.104l-1.003,0.04l-0.255,0.207
		c-0.091,0.073-0.243,0.148-0.679,0.148c-0.181,0-0.365-0.011-0.55-0.022c-0.224-0.013-0.448-0.025-0.667-0.025
		c-0.471,0-1.146,0.051-1.761,0.464c-0.041,0.006-0.097,0.012-0.176,0.012c-0.173,0-0.352-0.021-0.53-0.039
		c-0.245-0.026-0.488-0.049-0.72-0.049c-0.57,0-1.046,0.146-1.42,0.437c-0.011,0-0.538-0.016-0.652-0.016
		c-0.372,0-0.88,0.042-1.346,0.347c-0.521,0.017-1.038,0.042-1.552,0.067c-0.887,0.042-1.766,0.085-2.644,0.085h-0.414
		c0,0-0.333,0.334-0.353,0.356C16.475,125.56,16.402,125.558,16.329,125.555z"/>
	<path d="M104.48,83.784c0.081,1.223,0.489,2.364,0.57,3.586c-0.204,0.081-0.611,0.245-0.856,0.326
		c-1.019,0.326-1.997,0.856-3.097,0.978c-0.326-2.527-0.734-5.053-1.263-7.539c-0.571-3.953-1.345-7.906-2.038-11.859
		c-0.041-0.367-0.082-1.141-0.122-1.549c0.285,0,0.896-0.041,1.223-0.082v-0.326c0.53,0.122,0.978-0.041,1.304-0.408
		c0.285-0.041,0.937-0.081,1.223-0.122c0.57,0.937,0.204,2.16,0.652,3.138c0.204,1.793,0.53,3.505,0.856,5.257
		C103.542,78.038,103.909,80.932,104.48,83.784z M53.704,101.552c0.489-1.589,0.367-3.423-0.326-4.972
		c-1.06,1.508-0.978,4.034-0.408,5.542C53.133,101.796,53.378,101.633,53.704,101.552z M200,102.774
		c-0.285,0-0.897-0.041-1.182-0.041l-0.244,0.326c-1.386,0.082-2.812,0.122-4.238,0.163c-0.245,0.57-1.019,0.204-1.467,0.367
		c-1.712-0.122-3.26,0.611-4.972,0.489c-0.815,0.611-1.875,0.163-2.771,0.448c-0.897,0.285-1.834,0.326-2.73,0.285l0.041,0.367
		c-2.567-0.204-5.012,0.611-7.58,0.571c-0.734,0.652-1.915,0.204-2.812,0.407c-0.448,0.408-1.06,0.285-1.589,0.326
		c-1.019,0-2.038,0.367-3.056,0.367c-0.041,0.082-0.163,0.244-0.244,0.326c-2.608-0.082-5.175,0.408-7.783,0.611
		c-1.426,0.774-3.26,0-4.686,0.733c-0.774,0.204-1.793-0.204-2.445,0.408c-1.304,0.245-2.893-0.244-4.034,0.408
		c-0.937,0.122-1.834,0.122-2.771,0.122v0.326c-1.182,0.041-2.364,0.082-3.505,0.163c-0.897,0.57-2.201,0.082-2.934,0.978
		c-0.122-0.163-0.326-0.489-0.408-0.693v0.408c-0.53,0.204-1.508-0.367-1.793,0.326c-1.304,0.204-2.893-0.244-4.034,0.448
		c-0.897,0.285-2.241-0.367-2.853,0.408c-1.06,0.041-2.241-0.122-3.138,0.611c-0.082-0.122-0.244-0.408-0.326-0.53
		c-0.53,0.937-2.078-0.163-2.69,0.734c-1.956-0.041-3.831,0.611-5.827,0.53c-0.082,0.041-0.204,0.204-0.285,0.244
		c-0.897,0.082-1.752,0.082-2.649,0.122c-1.06,0.856-2.771-0.082-3.871,0.693c-0.897,0.244-2.078-0.245-2.853,0.407
		c-1.182,0.326-2.649-0.244-3.668,0.448c-0.896,0.082-1.793,0.122-2.73,0.122l0.041,0.285c-0.57-0.122-1.06,0-1.467,0.326
		c-1.141,0.204-2.69-0.326-3.627,0.448c-1.304,0.163-2.853-0.244-4.034,0.408c-1.019,0.285-2.445-0.326-3.26,0.448
		c-1.019,0.041-2.038,0.082-3.016,0.122c-0.897,0.693-2.282,0.204-3.342,0.448c-0.774,0.815-2.486-0.163-3.423,0.611
		c-0.897,0.285-2.078-0.244-2.853,0.408c-1.223,0.122-2.486,0.163-3.708,0.163c-0.081,0.082-0.244,0.245-0.326,0.326
		c-0.53,0-1.06,0-1.549,0l-0.041,0.326c-1.06,0.041-2.16,0.122-3.26,0.122l0.122,0.285c-0.571,0.041-1.1,0.041-1.671,0.082
		c-1.63,0.611-3.505,0.244-5.216,0.53l-0.204,0.245c-1.182,0.082-2.404,0.122-3.586,0.122l0.081,0.326
		c-0.693,0.244-1.752-0.367-2.201,0.367c-0.815,0.163-1.793-0.204-2.527,0.326c-1.141,0.122-2.323,0.122-3.505,0.204v0.285
		c-1.1,0-2.16,0.082-3.26,0.122v0.285c-1.956,0.245-3.912,0.448-5.909,0.53c-0.082,0.082-0.244,0.204-0.326,0.244
		c-1.06,0.163-2.16,0.082-3.219,0.163l0.122,0.326c-1.1,0.163-2.445-0.285-3.423,0.326c-0.856,0.122-1.752,0.122-2.649,0.163
		c-1.06,0.856-2.771-0.163-3.831,0.693c-0.897,0.367-2.201-0.408-2.853,0.408c-0.693,0.163-1.549-0.204-2.078,0.367
		c-1.549,0.041-3.056,0.163-4.564,0.163c-0.082,0.082-0.204,0.285-0.244,0.367c-0.448,0-1.263-0.041-1.671-0.041
		c0.082-0.53-0.082-1.019-0.367-1.386c-0.163-0.693,0.041-1.467-0.489-1.997c-0.122-0.53,0.163-1.263-0.367-1.589
		c-0.122-0.245-0.285-0.693-0.408-0.937c-0.122-0.652,0.163-1.467-0.408-1.956c0-0.448-0.082-0.897-0.367-1.263
		c-0.285-0.937-0.244-1.997-0.774-2.853c-0.204-1.304-0.774-2.527-0.978-3.871c-0.408-0.408-0.082-0.937,0.163-1.304
		c0.978,0,1.508-0.937,2.282-1.345c1.956-1.141,3.627-2.649,5.583-3.708c0.57-0.897,1.915-0.856,2.364-1.834
		c1.589-0.53,2.649-2.078,4.197-2.608c1.386-1.06,2.975-1.834,4.238-3.056c0.693-0.244,1.467-0.53,1.752-1.263
		c0.245-0.041,0.693-0.163,0.937-0.204c0.082-0.448,0.367-0.693,0.815-0.734c1.549-1.1,3.056-2.16,4.686-3.138
		c0.367-0.489,0.734-1.019,1.426-0.978c0.53-0.937,1.915-0.774,2.323-1.834c1.589-0.571,2.69-1.956,4.238-2.649
		c1.263-1.06,2.771-1.834,4.075-2.893c0.611-0.163,0.937-0.856,1.63-0.815c0.041-0.122,0.163-0.367,0.244-0.489
		c1.345-0.652,2.527-1.63,3.749-2.486c1.1-0.611,1.997-1.386,2.975-2.119c0.937-0.245,1.386-1.263,2.323-1.467
		c0.693-0.774,1.875-0.897,2.404-1.834c0.978,0.122,1.223-0.897,1.956-1.223c1.019-0.367,1.63-1.386,2.69-1.752
		c1.426-1.06,2.934-1.997,4.401-2.934c0.652-0.611,1.426-1.263,2.323-1.508c0.122-0.163,0.367-0.53,0.448-0.693
		c0.244-0.082,0.734-0.204,0.978-0.244c0.489-0.937,1.589-1.1,2.364-1.712c1.1-0.937,2.527-1.508,3.545-2.567
		c3.097-1.834,5.909-4.075,8.965-5.99c0.367-0.204,0.652-0.489,0.856-0.856c0.815-0.082,1.304-0.815,1.956-1.223
		c1.549-0.652,2.69-1.956,4.197-2.69c2.038-1.426,4.034-2.975,6.235-4.197c2.16-1.752,4.605-3.179,6.846-4.849
		c0.611-0.408,1.263-0.856,1.956-1.141c0.122-0.122,0.367-0.367,0.489-0.489c3.831-2.486,7.539-5.216,11.37-7.661
		c0.244-0.285,0.571-0.53,0.937-0.734c1.06-0.815,2.404-1.345,3.26-2.404c0.448-0.041,0.937-0.082,1.141-0.571
		c2.893-1.793,5.542-4.075,8.558-5.664c0.122-0.163,0.367-0.489,0.489-0.611c2.323-1.304,4.483-2.934,6.642-4.483
		c2.404-1.345,4.483-3.179,6.805-4.605c3.912-2.486,7.58-5.298,11.492-7.783c2.404-1.793,5.012-3.301,7.335-5.216
		c0.245-0.041,0.734-0.081,0.978-0.122c0.326,2.201,1.1,4.32,1.589,6.479c0.204,0.53,0.285,1.1,0.408,1.63
		c0.163,0.408,0.285,0.856,0.367,1.263c0.815,2.771,1.426,5.624,2.241,8.395c0.367,1.549,0.693,3.056,1.223,4.523
		c1.223,4.727,2.567,9.414,3.749,14.141c0.244,0.081,0.734,0.285,0.937,0.367c-0.122,0.041-0.407,0.082-0.57,0.082
		c-0.163,1.06,0.489,2.038,0.611,3.056c0.163,0.53,0.245,1.06,0.367,1.589c0.937,2.975,1.63,6.031,2.445,9.006
		c0.897,3.545,1.997,7.05,2.812,10.636c0.611,1.386,0.815,3.016,1.223,4.483c0.53,0.978,0.53,2.16,0.856,3.219
		c0.285,0.489,0.285,1.06,0.448,1.63c0.367,0.897,0.489,1.915,0.774,2.853c0.367,1.06,0.53,2.16,0.856,3.219
		c0.571,2.038,1.182,4.075,1.63,6.153c0.489,1.345,0.734,2.771,1.141,4.116c0.53,1.589,0.856,3.26,1.263,4.849
		c0.245,0.53,0.285,1.1,0.408,1.63c0.53,1.426,0.856,2.975,1.223,4.442c0.326,0.978,0.652,1.915,0.774,2.934
		C200.122,101.266,199.959,102.081,200,102.774z M38.3,103.1c-0.285,0.041-0.897,0.082-1.223,0.082l-0.204,0.367
		c-0.163,0.041-0.489,0.082-0.652,0.082c-0.041-1.549-0.489-3.382,0.571-4.727c0.734-0.367,1.671-0.041,2.445,0l-0.163-0.896
		c-0.245-0.122-0.734-0.326-0.978-0.448c-0.734-0.041-1.467-0.041-2.16-0.041c-0.285,0.448-0.856,0.448-1.263,0.652
		c-0.815,0.285-1.223,1.1-1.915,1.549c-0.163,0.408-0.326,0.815-0.53,1.223c-0.652,1.467-0.652,3.056-0.611,4.605
		c-0.448,0.408-1.019,0.489-1.549,0.611c0,0.571,0,1.1,0.041,1.671c0.367-0.53,0.937-0.815,1.508-1.019
		c0.041,4.646,0.856,9.291,0.489,13.896c-0.163,1.467-1.752,1.549-2.853,1.223c0.041,0.326,0.082,0.937,0.122,1.263
		c1.426,0.122,2.893,0.163,4.238-0.448c1.263-0.937,2.608-1.915,3.138-3.464c0.53-1.549,0.204-3.219,0.163-4.849
		c0-3.301-0.611-6.602-0.326-9.902C37.444,104.567,38.3,104.078,38.3,103.1z M46.776,104.975c-0.122-2.282-0.285-4.523-0.448-6.765
		c-1.345,0.774-2.812,1.793-2.893,3.505c-0.448-0.326-0.652-0.978-1.263-0.978c-1.508-0.204-2.486,1.1-3.545,1.875
		c0.163,0.53,0.408,1.019,0.693,1.508c0,1.345,0.041,2.649,0.082,3.994c0.652,0.733,0.285,2.078,0.163,3.016
		c0.408,1.182,0.041,2.486,0.244,3.668c0.489-0.285,1.019-0.489,1.549-0.652c0.244-0.082,0.693-0.244,0.937-0.326l0.082-0.285
		c0.652,0.122,0.937-0.652,1.63-0.53c0.244-2.649-0.285-5.298-0.122-7.987c-0.082-0.611,0.53-0.978,0.937-1.345
		C45.717,103.63,45.839,105.056,46.776,104.975z M58.635,102.367c-0.611,0.082-1.182,0.245-1.752,0.448
		c0.041,1.182-0.081,2.364-0.611,3.423c-0.53,0.978-1.793,1.589-2.771,0.856c-0.57-1.304-0.652-2.812-0.489-4.197
		c0.53-0.122,1.263,0.081,1.549-0.489c0.611-0.163,1.345-0.285,1.671-0.815c0.693,0,1.263-0.408,1.915-0.489
		c0.408-2.078-0.856-4.116-2.567-5.216c-1.141,0.041-3.056-0.611-3.627,0.693c-2.853,0.897-4.32,4.36-3.994,7.254
		c0.285,1.508,0.448,3.219,1.63,4.32c0.326,0.489,0.856,0.774,1.304,1.182c1.06,0.082,2.119,0.041,3.179-0.041l0.041-0.448
		c0.204,0.041,0.611,0.082,0.815,0.122l0.082-0.448c0.53,0,1.019-0.204,1.345-0.652C57.82,106.442,58.675,104.445,58.635,102.367z
		 M61.772,90.63c1.712-1.793,1.345-4.727-0.081-6.561c-0.856-0.204-1.712-0.082-2.527,0.082c-0.978,1.549-1.06,3.382-0.489,5.094
		C59.205,90.467,60.468,90.997,61.772,90.63z M68.089,96.906c-0.082-0.489,0.122-1.304-0.448-1.549
		c-0.367,1.671-0.815,3.301-1.426,4.89c-0.448,0.163-0.693,0.448-0.815,0.937c-0.448,0-1.1,0-1.06-0.611
		c-0.489-2.893-0.407-5.868-0.448-8.802c-0.937,0.082-1.712,0.734-2.69,0.937c-0.204,0.122-0.611,0.326-0.815,0.408
		c-0.245,0.081-0.734,0.285-0.978,0.367c0,0.367,0,1.141,0.041,1.508c0.774,3.342-0.57,7.172,1.345,10.31
		c0.856,0.081,1.712,0.081,2.567-0.082C66.296,103.548,67.844,100.207,68.089,96.906z M91.602,100.166
		c-0.408-2.69-0.652-5.42-1.1-8.109c-0.122-1.304-0.285-2.69-1.06-3.749c-0.285-0.448-0.774-0.693-0.815-1.263
		c-0.897-0.407-2.078-0.571-2.812,0.285c-0.734,0.122-1.549,0.204-2.078,0.733c-0.489,0-0.897,0.122-1.223,0.448
		c-0.734,0.326-1.875,0.163-2.364,0.856c-0.815,0.122-1.508,0.652-2.323,0.611c-0.285-3.627-0.815-7.254-1.345-10.84
		c0.53,0.204,0.978,0.082,1.263-0.367c0.571-0.367,1.182-0.571,1.875-0.571c0.326-0.122,1.019-0.326,1.345-0.448
		c0.244,1.875,0.367,3.749,0.693,5.624c0.489-0.163,1.141,0,1.508-0.448c0.571,0,0.937-0.163,1.1-0.489
		c0.937-0.122,1.793-0.652,2.771-0.856c0.53-0.571,1.752-0.122,1.834-1.1c0.082-1.223-0.122-2.404-0.244-3.627
		c-0.244-0.774-0.244-1.589-0.408-2.404c-0.163-0.408-0.285-0.815-0.367-1.223c-0.408-0.611-0.897-1.182-1.304-1.752
		c-0.856-0.122-1.752-0.163-2.649-0.082c-0.041,0.082-0.204,0.245-0.285,0.326c-1.06,0.122-1.956,0.815-2.975,0.937
		c-0.245,0.448-0.774,0.326-1.223,0.367c0-0.815-0.041-1.671-0.082-2.527c-0.367,0.041-1.141,0.081-1.549,0.122
		c-0.285,0.408-0.734,0.571-1.345,0.448c0,1.019,0.122,2.038,0.122,3.056c-0.326,0.489-1.019,0.448-1.549,0.611
		c-0.204,0.081-0.652,0.244-0.897,0.367c-0.407,0.53-1.182,0.367-1.752,0.652c-0.937,0.204-1.589,0.896-2.201,1.589
		c-1.426,2.282-1.182,5.135-0.652,7.62c0.204,2.527,0.652,4.972,0.897,7.457c0.122,1.304,0.774,2.486,1.589,3.505
		c1.182,0.937,2.73,0.245,3.994-0.082c0.204-0.082,0.652-0.285,0.856-0.367c0.326-0.367,0.734-0.489,1.223-0.448
		c0.326-0.367,0.734-0.489,1.223-0.367c0.204-0.122,0.611-0.326,0.815-0.408c0.571-0.571,1.467-0.408,2.119-0.815
		c0.204-0.245,0.448-0.367,0.734-0.408c0.041,0.815,0.082,1.589,0.122,2.364c0.489,0.652,0.204,1.508,0.367,2.282
		c0.326,2.078,0.53,4.157,0.815,6.235c-0.122,0.204-0.367,0.611-0.489,0.815c-0.53,0-1.019,0.041-1.549,0.081
		c-0.204,0.408-0.611,0.571-1.182,0.448c-0.122,0.571-0.815,0.326-1.223,0.448c-0.408-1.549-0.367-3.179-0.489-4.768
		c0.163-1.141-1.345-0.53-1.956-0.652l-0.163,0.448c-0.163,0-0.489,0-0.652,0c-0.244,0.611-1.06,0.285-1.549,0.489l-0.204,0.326
		c-0.204,0-0.53,0-0.693,0c-0.204,0.448-0.611,0.57-1.223,0.448l-0.163,0.326c-0.204,0-0.611,0.041-0.815,0.041
		c-0.163,2.201,0.489,4.32,0.571,6.479c0.53,0.489,0.489,1.345,0.897,1.915c0.326,0.285,0.611,0.611,0.856,0.978
		c0.856,0.204,1.752,0.163,2.608,0.082l0.204-0.367c0.163,0,0.489,0,0.652-0.041c0.122-0.774,1.263,0,1.426-0.734
		c0.734-0.204,1.386-0.652,2.201-0.489c0,0.815,0.041,1.671,0.122,2.486c0.367,0,1.141-0.041,1.549-0.041
		c0.244-0.448,0.734-0.611,1.386-0.489c0.041-1.1-0.285-2.16-0.081-3.26c0.326-0.489,1.06-0.244,1.589-0.367l0.041-0.367
		c1.06-0.082,2.038-0.734,3.097-0.897c0.204-0.081,0.611-0.326,0.815-0.448C91.561,105.097,91.887,102.489,91.602,100.166z
		 M111.448,83.091c-0.856-4.89-1.63-9.78-2.567-14.67c-0.244-2.404-0.733-4.768-1.589-7.009c-0.652-1.223-1.589-2.975-3.26-2.567
		c-1.467,0.652-2.975,1.141-4.483,1.671c-0.367,0.285-0.856,0.326-1.304,0.407c-0.937,0.693-2.201,0.815-3.301,1.223
		c-0.285,0.53-1.019,0.245-1.426,0.652c-0.489,0-0.897,0.163-1.223,0.448c-0.815,0.163-1.549,0.611-2.404,0.815
		c0.326,3.301,1.019,6.602,1.589,9.903c0.326,1.63,0.489,3.301,0.897,4.89c0.041,1.06,0.448,2.038,0.489,3.097
		c0.611,3.219,1.141,6.479,1.712,9.74c0.285,1.508,0.571,3.016,0.734,4.523c0.57,1.875,0.611,3.994,1.06,5.909
		c0.489,2.771,1.019,5.501,1.426,8.313c0.408,0.53,0.204,1.263,0.285,1.875c0.285-0.041,0.897-0.041,1.223-0.082
		c0.204-0.408,0.611-0.571,1.182-0.489c0.285-0.326,0.693-0.448,1.223-0.367c0.204-0.122,0.611-0.326,0.815-0.448
		c0.652-0.367,1.426-0.652,2.201-0.734c0.122-1.467-0.408-2.893-0.571-4.36c-0.326-1.875-0.53-3.749-1.019-5.583
		c-0.163-1.304-0.367-2.567-0.611-3.831c-0.326-0.611-0.489-1.671,0.489-1.793c0.367-0.489,1.06-0.245,1.549-0.367
		c0.245-0.408,0.652-0.53,1.223-0.408c0.245-0.367,0.652-0.53,1.182-0.448c0.204-0.082,0.652-0.245,0.897-0.367
		c0.693-0.734,2.201-0.367,2.812-1.345C112.385,89.163,111.856,85.944,111.448,83.091z M132.842,101.552
		c-0.041-0.367-0.081-1.1-0.122-1.467c-1.712-5.298-2.853-10.799-4.483-16.137c-0.408,0.367-0.978,0.489-1.508,0.611
		c-0.204,0.53-0.856,0.326-1.304,0.448c-0.408-2.364-1.263-4.605-1.712-6.928c-0.367-1.06-0.652-2.119-0.856-3.219
		c-0.448-1.304-0.774-2.649-1.1-3.994c0.082-0.937-0.734-1.508-1.549-1.06c-0.204,0.122-0.611,0.285-0.815,0.408
		c-0.204,0.244-0.489,0.367-0.815,0.407c-0.367-0.693-0.285-1.589-0.734-2.201c-0.082-0.571-0.163-1.141-0.245-1.712
		c-0.611-1.1-0.489-2.445-1.019-3.545c-0.285-1.06-0.489-2.201-0.856-3.219c-0.163-0.53-0.041-1.182-0.448-1.63
		c-0.163-0.652-0.204-1.304-0.163-1.956c0.734,0.163,1.1-0.57,1.793-0.448c0-0.978-0.53-1.834-0.53-2.812
		c-0.571,0-1.182-0.082-1.63,0.285c-0.408,0.122-0.815,0.285-1.223,0.448c-0.693,0.244-1.467,0.326-2.038,0.856
		c-1.019,0.082-1.793,0.937-2.853,0.897c-0.163,1.345,0.448,2.567,0.734,3.831c0.326,1.06,0.448,2.201,0.856,3.219
		c2.608,9.78,5.257,19.601,7.865,29.381c1.019,4.442,2.567,8.761,3.423,13.244c0.652,0.204,1.182,0.122,1.589-0.326
		c0.652-0.082,1.223-0.448,1.875-0.489c0.856-0.693,2.16-0.897,3.219-1.263c0.326-0.326,0.734-0.448,1.223-0.367
		c0.285-0.611,1.1-0.163,1.467-0.693C131.538,101.878,132.15,101.592,132.842,101.552z M146.209,93.646
		c-1.426-5.012-2.486-10.106-4.157-15.037c-0.652,0.408-1.467,0.448-2.038,0.937c-0.204,0.041-0.57,0.041-0.734,0.082
		c-1.589-5.583-3.056-11.247-4.523-16.871c-0.897,0.041-1.752,0.408-2.486,0.897c-0.163,0-0.489-0.041-0.652-0.041
		c-0.041-0.285-0.082-0.774-0.122-1.019c-0.367-0.489-0.326-1.06-0.448-1.589c-0.408-0.937-0.448-1.956-0.815-2.893
		c-0.448-1.589-0.937-3.219-1.263-4.849l-0.204-0.285c-0.204-1.467-0.856-2.853-0.897-4.36c0.285,0,0.897-0.041,1.182-0.041v-0.448
		c0.285,0,0.897,0.041,1.223,0.041c0.163-1.345-0.081-2.975-0.937-4.075c-0.489,0.285-1.06,0.448-1.549,0.734
		c-0.448,0.081-0.856,0.204-1.263,0.448c-0.448,0-0.856,0.163-1.182,0.407c-0.734,0.122-1.426,0.448-2.078,0.815
		c-0.448,0.041-0.856,0.204-1.223,0.407c-0.53,0.122-1.467,0.285-1.182,1.1c0.448,1.752,0.978,3.586,1.386,5.379
		c1.141,3.708,1.997,7.498,3.056,11.207c0.326,0.978,0.448,1.997,0.815,2.934c2.771,10.392,5.583,20.742,8.313,31.134
		c0.448,0.937,0.57,2.038,0.815,3.056c0.285,0,0.856-0.041,1.141-0.081l0.204-0.326c0.245-0.041,0.774-0.082,1.019-0.082
		c0.244-0.367,0.652-0.53,1.182-0.489c0.652-0.408,1.426-0.489,2.119-0.774c0.489-0.774,1.997,0,2.16-1.1
		c0.489,0,0.978-0.041,1.467-0.122c0.652-0.611,1.712-0.611,2.527-0.815C147.187,96.417,146.535,95.072,146.209,93.646z
		 M162.631,90.019c-0.163-4.238-0.897-8.395-1.671-12.551c-0.122-0.611-0.204-1.223-0.408-1.834
		c-0.204-0.652-1.019-0.693-1.549-1.019c-1.141-1.426-2.812-2.241-4.197-3.342c0.571,4.727,2.241,9.454,1.467,14.263
		c0.163,0.734-0.897,0.896-0.856,1.508c-0.041-0.122-0.163-0.367-0.244-0.489c-1.549-0.652-1.956-2.445-2.771-3.749
		c-0.489-1.304-1.06-2.567-1.386-3.871c-1.019-2.282-1.426-4.849-2.241-7.213c-0.082-0.448-0.204-0.856-0.408-1.263
		c-0.693-3.056-1.671-6.031-2.201-9.128c-0.571-0.652-0.245-1.63-0.489-2.404c-0.53-2.282-0.815-4.686-0.571-7.05
		c0.082-0.693,0.652-1.589,1.467-1.141c1.997,1.549,2.771,4.116,3.708,6.398c0.652,0.693,0.163,2.119,1.589,1.793
		c0.204-0.489,0.611-0.652,1.223-0.53c0.326-0.652,1.182-0.285,1.712-0.448c0.285-1.345-0.244-2.608-0.53-3.912
		c-0.693-2.241-1.182-4.523-1.834-6.765c-0.408-0.652-0.448-1.223-0.041-1.712l-0.408,0.163c-0.041-0.489-0.163-0.897-0.367-1.304
		c-0.122-0.571-0.122-1.141-0.408-1.671c-0.122-0.53-0.204-1.06-0.408-1.589c-0.244-0.937-0.448-1.956-0.815-2.893
		c-0.163-0.53-0.041-1.182-0.448-1.63c-0.163-0.897-0.408-1.793-0.571-2.69c-1.426,0.122-2.69,0.856-4.034,1.345
		c-0.041,1.304,0.856,2.404,0.896,3.708c-1.019-0.611-1.386-1.834-2.364-2.486c-1.019-0.652-2.038-1.182-3.301-0.978
		c-0.204,0.122-0.571,0.367-0.734,0.489c-1.589,1.019-1.915,3.056-2.323,4.727c-0.897,7.091,0.326,14.181,1.508,21.109
		c0.897,4.075,1.752,8.191,2.975,12.185c0.163,0.489,0.122,1.1,0.448,1.549c0.244,1.63,1.1,3.056,1.386,4.686
		c0.57,1.141,0.774,2.445,1.263,3.627c0.448,1.06,0.815,2.16,1.223,3.219c1.141,2.853,2.445,5.624,3.912,8.313
		c1.508,2.567,3.219,5.42,6.113,6.602c0.448,0.53,1.263,0.285,1.875,0.367c0.489-0.082,1.141,0.163,1.508-0.326
		c1.345-0.693,2.201-2.038,2.69-3.423C162.713,95.846,162.917,92.912,162.631,90.019z M184.148,94.176
		c-0.122-0.693-0.041-1.426-0.367-2.038c-0.326-1.345-0.448-2.771-0.815-4.116c-0.285-1.223-0.448-2.445-0.815-3.668
		c-0.122-0.652-0.122-1.345-0.367-1.997c-0.163-0.571-0.122-1.223-0.408-1.712c-0.122-0.693-0.163-1.386-0.407-2.038
		c-0.285-1.223-0.367-2.486-0.815-3.668c-0.57-3.382-1.304-6.805-2.078-10.147c-0.408-2.608-1.06-5.175-1.589-7.783
		c-0.204-1.345-0.489-2.69-0.815-4.034c-0.326-0.611,0.204-1.508-0.489-1.956c-0.081-0.693,0-1.467-0.367-2.119
		c-0.245-1.671-0.774-3.301-0.978-5.012c-0.367-0.611-0.326-1.386-0.448-2.038c-1.426-6.398-2.649-12.796-3.953-19.153
		c0.204-0.897-0.856-1.304-1.345-0.652c-1.752,0.571-3.382,1.467-5.216,1.752c-0.285,2.853,1.223,5.542,1.345,8.395
		c0.774,3.097,1.345,6.276,1.997,9.414c0.408,1.426,0.611,2.934,0.897,4.401c0.448,1.875,0.815,3.831,1.182,5.746
		c0.693,3.382,1.508,6.724,2.078,10.147c0.285,1.182,0.693,2.404,0.693,3.668c-0.693,0.652-1.834,0.693-2.69,1.06
		c-0.285,0.489-0.856,0.204-1.304,0.285c0-2.038-0.774-3.953-0.978-5.99c-0.285-0.611-0.285-1.304-0.448-1.956
		c-0.245-0.53-0.285-1.141-0.326-1.712c-0.367-0.407-0.245-0.978-0.367-1.467c-0.326-2.119-0.897-4.197-1.263-6.276
		c-0.081-0.082-0.163-0.245-0.204-0.326c-0.082-1.915-0.815-3.749-1.06-5.664c-0.896-4.442-1.793-8.884-2.73-13.326
		c-0.326-0.693-0.122-1.671-0.693-2.119c-0.041-0.815-0.122-1.63-0.163-2.404c-1.019,0.082-1.997,0.448-2.975,0.856
		c-1.182,0.448-2.364,0.897-3.586,1.304c0.611,5.42,2.282,10.677,3.016,16.097l0.204,0.082c0.448,2.649,0.978,5.338,1.63,7.946
		c0.326,2.771,1.141,5.42,1.63,8.15c0.448,1.875,0.652,3.871,1.223,5.705c0.122,0.693,0.082,1.426,0.408,2.078
		c0.122,0.693,0.082,1.426,0.408,2.038c0.448,1.875,0.693,3.871,1.223,5.705c0.082,0.53,0.163,1.06,0.163,1.589
		c0.734,0.774,0,2.078,0.774,2.812c0.122,0.53-0.163,1.223,0.326,1.63c0.326,2.608,1.06,5.175,1.549,7.783
		c0.367,1.915,0.734,3.871,1.263,5.705c0.082,0.693,0.082,1.426,0.367,2.078c0.285,1.63,0.693,3.26,1.019,4.849
		c0.122-0.122,0.326-0.326,0.407-0.448c0.774-0.285,1.793-0.285,2.445-0.856c1.06-0.408,2.241-0.652,3.301-1.1
		c0.53-0.326,0.204-1.059,0.204-1.508c-1.467-6.031-2.445-12.307-3.912-18.216c0-1.223-0.611-2.364-0.489-3.586
		c0.244-0.122,0.693-0.285,0.937-0.408c0.448,0,0.856-0.122,1.223-0.408c0.408-0.041,1.223-0.122,1.63-0.163
		c0.408,2.241,0.856,4.523,1.426,6.765c0.082,0.652,0.082,1.386,0.367,2.038c0.407,2.038,0.815,4.075,1.263,6.072
		c0.122,0.571,0.041,1.182,0.367,1.712c0.367,1.304,0.326,2.812,0.897,4.034c0.081,0.652,0.122,1.263,0.122,1.915
		c0.856,0,1.834-0.163,2.527-0.734c0.448,0,0.856-0.163,1.223-0.408c1.019-0.245,2.038-0.611,2.975-1.06
		C184.474,95.194,184.555,94.583,184.148,94.176z M195.517,94.42c-0.122-0.245-0.367-0.734-0.489-0.978
		c-0.163,0-0.448,0.041-0.611,0.041c-0.244-0.856-1.345-0.367-1.956-0.448c-1.63-0.163-2.975,0.856-4.279,1.671
		c-1.263,0.856-2.119,2.527-1.06,3.871c1.263,0.652,3.179,0.937,4.401,0.163c0.163,0,0.489-0.041,0.652-0.041
		C193.724,97.721,195.762,96.539,195.517,94.42z M9.53,164.553c-0.652-0.163-1.263-0.204-1.875-0.285
		c-0.041-0.326-0.041-0.897-0.082-1.223c-0.53-0.041-1.06-0.122-1.589-0.204c-0.367-1.345,0.448-2.69,0.122-4.075
		c-0.408-1.508,0.448-2.975,0.856-4.401c0.489-3.668,0.693-7.376,1.141-11.044c1.386-3.056-0.041-6.561,0.937-9.739
		c0.57-1.386-0.408-2.69-0.367-4.075c0.122-1.06-0.978-1.589-1.1-2.567c0.408-0.367,0.571-0.897,0.489-1.508
		c0.041,0.285,0.082,0.815,0.122,1.1h0.448c0.122-0.815-0.041-1.834,0.611-2.486c0.326-0.285,0.897-0.774,0.326-1.182
		c-0.53-0.408-0.326-1.1-0.367-1.671c-0.448-0.041-0.937-0.082-1.426-0.122c-0.448-0.693-0.856-1.956-1.956-1.589
		c-1.712,0.285-2.078,2.16-2.893,3.423c0.041,1.06,0.53,2.934,1.875,2.812c0.041,0.53,0.448,1.671-0.53,1.589
		c-0.611,1.345-1.019,2.771-0.937,4.238c0.041,0.978,0.082,1.956-0.367,2.853c-1.1,2.119-1.304,4.523-1.834,6.765
		c-0.978,0.734-1.345,1.915-1.019,3.097c0.571,0.408,1.223,0.041,1.671-0.367c0.285,0.774,0.815,1.467,0.774,2.323
		c0,1.508,0.734,2.934,0.489,4.442c-0.815,4.564-1.019,9.291-0.408,13.896c0.448,1.06,0.326,2.241,0.163,3.382
		c2.567-0.041,5.135-0.041,7.702,0l-0.163-0.448l-0.815-0.285c0.244-0.448,0.815-0.489,1.1-0.856
		c-0.53-0.163-1.06-0.326-1.589-0.489C9.367,165.653,10.508,164.716,9.53,164.553z"/>
</g>
</svg>
